# xmcd
#
# Track frame offsets: 
#        150
#        16693
#        33610
#        51119
#        72405
#        86592
#        106394
#        128307
#        139038
#        163178
#        180887
#        206681
#        236055
#        259796
#        276147
#        289829
#        307527
#        316487
#
# Disc length: 4309 seconds
#
# Revision: 2
# Processed by: cddbd v1.5.2PL0 Copyright (c) Steve Scherf et al.
# Submitted via: ExactAudioCopy v0.99pb4
#
DISCID=f310d312
DTITLE=Wildwest - Abenteuer - Der Pestpfarrer von Annaberg (23)
DYEAR=2005
DGENRE=Speech
TTITLE0=Babs und die Angst
TTITLE1=Feuer in Schneeberg
TTITLE2=Der reiche Kaufmann
TTITLE3=Was in der Zukunft verborgen liegt
TTITLE4=Anna Sophia will es wissen
TTITLE5=Schwere Anschuldigungen
TTITLE6=Georg Bieber, Dorfrichter in Claßnitz
TTITLE7=Die Verlobung
TTITLE8=Tot!
TTITLE9=Auf der Flucht nach Böhmen
TTITLE10=Verurteilt
TTITLE11=Einer, der hinter die Dinge sieht
TTITLE12=Die Läuterung vom Jähzorn
TTITLE13=Ein Verirrter weist den Weg
TTITLE14=Die Antwort des Kurfürsten
TTITLE15="Zu wem führet ihr mich?"
TTITLE16=Das letzte Abendmahl
TTITLE17="Hab ich die Pest überlebt?"
EXTD=
EXTT0=
EXTT1=
EXTT2=
EXTT3=
EXTT4=
EXTT5=
EXTT6=
EXTT7=
EXTT8=
EXTT9=
EXTT10=
EXTT11=
EXTT12=
EXTT13=
EXTT14=
EXTT15=
EXTT16=
EXTT17=
PLAYORDER=
